# xmcd
#
# Track frame offsets:
#	150
#	17700
#	36780
#
# Disc length: 725 seconds
#
# Revision: 0
# Processed by: cddbd v1.5.1PL2 Copyright (c) Steve Scherf et al.
# Submitted via: audiograbber 1.83.01
#
DISCID=1a02d303
DTITLE=Bilgeri - I´am gonna take you home
DYEAR=1991
DGENRE=JPop
TTITLE0=Iám gonna takeyou home
TTITLE1=Captain Midnight
TTITLE2=Dont stop
EXTD=Made Spring/Summer 1192, Moonlight Studio,Warner Music Germany
EXTT0=
EXTT1=
EXTT2=
PLAYORDER=
